# xmcd CD database file
#
# Track frame offsets:
#	150
#	9812
#	23562
#	32417
#	38612
#	44775
#	65162
#	86262
#	106037
#	124625
#	143575
#	165000
#	184275
#	205300
#	228075
#
# Disc length: 3302 seconds
#
# Revision: 5
# Processed by: cddbd v1.5.2PL0 Copyright (c) Steve Scherf et al.
# Submitted via: CDex 1.70beta2
#
DISCID=aa0ce40f
DTITLE=讚美之泉 Stream of Praise - 耶和華祝福滿滿 Jehovah's Blessing Abound
DYEAR=1900
DGENRE=Gospel
TTITLE0=序曲 Prelude
TTITLE1=主賜福如春雨 Rain of Blessings
TTITLE2=你們要讚美耶和華 Praise the Lord all Ye People
TTITLE3=快樂頌 Joyful, Joyful, We Adore Thee
TTITLE4=你們要讚美耶和華（Reprise） Praise the Lord All Ye People (Reprise)
TTITLE5=愛 喜樂 生命 Love, Joy and Life
TTITLE6=除你以外 Whom have I but You ?
TTITLE7=耶和華祝福滿滿（台語） Jehovah's Blessing Abound
TTITLE8=組曲 - 祝福滿滿（演奏版） Medley of Blessings
TTITLE9=認識你真好 It's Good to Know You
TTITLE10=舉目向山 I Lift up my eyes to the Mountains
TTITLE11=從今天起 From This Day On
TTITLE12=犧性的愛 Sacrificial Love
TTITLE13=生命的凱歌 Victorious Life
TTITLE14=耶和華祝福滿滿（演奏版） Jehovah's Blessing Abound (instrumental)
EXTD=
EXTT0=
EXTT1=
EXTT2=
EXTT3=
EXTT4=
EXTT5=
EXTT6=
EXTT7=
EXTT8=
EXTT9=
EXTT10=
EXTT11=
EXTT12=
EXTT13=
EXTT14=
PLAYORDER=
